<svg width="36" height="48" viewBox="0 0 36 48" fill="none" xmlns="http://www.w3.org/2000/svg">
<path d="M16.6775 40.3909L0.156352 48H16.6775V40.3909Z" fill="#F8F4EE"/>
<path d="M18.6059 40.3909V48H34.9707L18.6059 40.3909Z" fill="#F8F4EE"/>
<path d="M0.156352 37.0033V45.6026L16.6775 37.8371V28.5081L0.156352 37.0033Z" fill="#F8F4EE"/>
<path d="M6.09772 31.4788L0.156352 34.4495V25.4332L6.09772 22.2541V31.4788Z" fill="#F8F4EE"/>
<path d="M7.557 30.8013V21.4202L16.6775 16.5212V25.9023L7.557 30.8013Z" fill="#F8F4EE"/>
<path d="M16.6775 14.0195L0 23.1922V11.3094L17.6705 0L35.2834 11.3094V23.1922L18.5537 14.0195V2.91857L17.6705 2.34528L16.6775 2.91857V14.0195Z" fill="#F8F4EE"/>
<path d="M27.57 21.4202L18.5537 16.5212L18.6059 25.9023L27.57 30.8013V21.4202Z" fill="#F8F4EE"/>
<path d="M29.1335 31.4788V22.2541L35.2834 25.9023V34.4495L29.1335 31.4788Z" fill="#F8F4EE"/>
<path d="M18.6059 37.8371V28.5081L35.2834 37.0033L34.9707 45.6026L18.6059 37.8371Z" fill="#F8F4EE"/>
</svg>
