<svg width="256" height="84" viewBox="0 0 256 84" fill="none" xmlns="http://www.w3.org/2000/svg">
<path d="M28.8578 69.8899L0.270542 83.0563H28.8578V69.8899Z" fill="#F8F4EE"/>
<path d="M32.1944 69.8899V83.0563H60.5111L32.1944 69.8899Z" fill="#F8F4EE"/>
<path d="M0.270542 64.0282V78.908L28.8578 65.4711V49.3288L0.270542 64.0282Z" fill="#F8F4EE"/>
<path d="M10.5511 54.469L0.270542 59.6093V44.0081L10.5511 38.5071V54.469Z" fill="#F8F4EE"/>
<path d="M13.0762 53.2967V37.0642L28.8578 28.5872V44.8197L13.0762 53.2967Z" fill="#F8F4EE"/>
<path d="M28.8578 24.2586L0 40.1303V19.5692L30.5759 0L61.0522 19.5692V40.1303L32.1043 24.2586V5.05011L30.5759 4.05812L28.8578 5.05011V24.2586Z" fill="#F8F4EE"/>
<path d="M47.7055 37.0642L32.1043 28.5872L32.1944 44.8197L47.7055 53.2967V37.0642Z" fill="#F8F4EE"/>
<path d="M50.4109 54.469V38.5071L61.0522 44.8197V59.6093L50.4109 54.469Z" fill="#F8F4EE"/>
<path d="M32.1944 65.4711V49.3288L61.0522 64.0282L60.5111 78.908L32.1944 65.4711Z" fill="#F8F4EE"/>
<path d="M77.0022 62.2177V26.124H91.4537C94.1091 26.124 96.3238 26.5176 98.0979 27.3048C99.8721 28.092 101.206 29.1847 102.099 30.5828C102.991 31.9692 103.438 33.5671 103.438 35.3765C103.438 36.7864 103.156 38.026 102.592 39.0952C102.028 40.1526 101.253 41.022 100.266 41.7035C99.2905 42.3732 98.1743 42.849 96.9171 43.131V43.4835C98.2918 43.5422 99.5783 43.93 100.777 44.6467C101.987 45.3634 102.968 46.3679 103.72 47.6603C104.472 48.941 104.848 50.4684 104.848 52.2425C104.848 54.1577 104.372 55.8672 103.42 57.3711C102.48 58.8632 101.088 60.044 99.2435 60.9135C97.3989 61.7829 95.1254 62.2177 92.4231 62.2177H77.0022ZM84.6333 55.9788H90.8545C92.9811 55.9788 94.532 55.5735 95.5072 54.7628C96.4824 53.9403 96.97 52.8476 96.97 51.4847C96.97 50.486 96.7292 49.6048 96.2474 48.8411C95.7657 48.0774 95.0784 47.4782 94.1854 47.0435C93.3042 46.6088 92.2527 46.3914 91.0308 46.3914H84.6333V55.9788ZM84.6333 41.2276H90.2906C91.3363 41.2276 92.2644 41.0455 93.0751 40.6813C93.8976 40.3053 94.5438 39.7766 95.0138 39.0952C95.4955 38.4137 95.7363 37.5971 95.7363 36.6454C95.7363 35.3413 95.2722 34.2897 94.3441 33.4908C93.4276 32.6918 92.1234 32.2923 90.4316 32.2923H84.6333V41.2276ZM109.813 62.2177V26.124H124.053C126.779 26.124 129.106 26.6116 131.033 27.5868C132.971 28.5502 134.446 29.919 135.456 31.6931C136.478 33.4555 136.989 35.5293 136.989 37.9144C136.989 40.3112 136.472 42.3732 135.438 44.1003C134.405 45.8157 132.907 47.1316 130.944 48.0481C128.994 48.9645 126.632 49.4227 123.86 49.4227H114.325V43.2896H122.626C124.083 43.2896 125.293 43.0899 126.256 42.6904C127.22 42.2909 127.937 41.6917 128.407 40.8928C128.888 40.0938 129.129 39.101 129.129 37.9144C129.129 36.7159 128.888 35.7055 128.407 34.8831C127.937 34.0606 127.214 33.4379 126.239 33.0149C125.275 32.5802 124.059 32.3628 122.591 32.3628H117.445V62.2177H109.813ZM129.305 45.7922L138.276 62.2177H129.852L121.075 45.7922H129.305ZM150.013 26.124V62.2177H142.382V26.124H150.013ZM156.292 62.2177V26.124H163.923V42.0383H164.399L177.388 26.124H186.534L173.14 42.2851L186.693 62.2177H177.564L167.677 47.3784L163.923 51.9606V62.2177H156.292ZM209.798 36.5044C209.657 35.0828 209.052 33.9784 207.983 33.1912C206.913 32.404 205.462 32.0104 203.63 32.0104C202.384 32.0104 201.333 32.1866 200.475 32.5391C199.617 32.8798 198.959 33.3557 198.501 33.9666C198.055 34.5776 197.831 35.2708 197.831 36.0462C197.808 36.6924 197.943 37.2564 198.237 37.7381C198.542 38.2198 198.959 38.6369 199.488 38.9894C200.017 39.3301 200.628 39.6297 201.321 39.8882C202.014 40.135 202.754 40.3464 203.541 40.5227L206.784 41.2981C208.359 41.6506 209.804 42.1206 211.12 42.708C212.436 43.2955 213.575 44.0181 214.539 44.8758C215.502 45.7335 216.248 46.7439 216.777 47.9071C217.317 49.0703 217.594 50.4038 217.605 51.9077C217.594 54.1166 217.03 56.0317 215.913 57.6531C214.809 59.2627 213.211 60.514 211.12 61.407C209.04 62.2881 206.532 62.7287 203.594 62.7287C200.681 62.7287 198.143 62.2823 195.981 61.3893C193.831 60.4964 192.151 59.1746 190.94 57.424C189.742 55.6616 189.113 53.4821 189.055 50.8855H196.439C196.521 52.0957 196.868 53.1061 197.479 53.9168C198.102 54.7158 198.93 55.3208 199.964 55.7321C201.01 56.1315 202.19 56.3313 203.506 56.3313C204.799 56.3313 205.921 56.1433 206.872 55.7673C207.836 55.3913 208.582 54.8685 209.111 54.1988C209.639 53.5291 209.904 52.7595 209.904 51.8901C209.904 51.0794 209.663 50.3979 209.181 49.8457C208.711 49.2935 208.018 48.8235 207.101 48.4358C206.197 48.0481 205.086 47.6956 203.771 47.3784L199.84 46.3914C196.797 45.6512 194.395 44.4939 192.632 42.9195C190.87 41.3451 189.995 39.2244 190.006 36.5573C189.995 34.372 190.576 32.4627 191.751 30.8296C192.938 29.1964 194.565 27.9216 196.633 27.0052C198.701 26.0887 201.051 25.6305 203.682 25.6305C206.361 25.6305 208.699 26.0887 210.697 27.0052C212.706 27.9216 214.269 29.1964 215.385 30.8296C216.501 32.4627 217.077 34.3543 217.112 36.5044H209.798ZM220.623 26.124H229.171L237.401 41.6682H237.754L245.984 26.124H254.532L241.367 49.458V62.2177H233.788V49.458L220.623 26.124Z" fill="#F8F4EE"/>
<path d="M77.3021 75.7228H79.2262C79.5092 75.7228 79.745 75.6442 79.9336 75.487C80.1222 75.3235 80.2165 75.0908 80.2165 74.789C80.2165 74.4495 80.1317 74.2105 79.9619 74.0722C79.7921 73.9339 79.5469 73.8647 79.2262 73.8647H77.3021V75.7228ZM76.1231 72.9027H79.396C79.9996 72.9027 80.4838 73.041 80.8485 73.3177C81.2132 73.5943 81.3955 74.0125 81.3955 74.5721C81.3955 74.9116 81.3106 75.204 81.1409 75.4492C80.9774 75.6882 80.7416 75.8737 80.4335 76.0057V76.0246C80.8485 76.1126 81.1629 76.3107 81.3767 76.6188C81.5904 76.9206 81.6973 77.301 81.6973 77.76C81.6973 78.0241 81.6502 78.2725 81.5559 78.5051C81.4615 78.7315 81.3138 78.9296 81.1126 79.0993C80.9114 79.2628 80.6536 79.3949 80.3392 79.4955C80.0248 79.5898 79.6506 79.637 79.2168 79.637H76.1231V72.9027ZM77.3021 78.6749H79.3865C79.745 78.6749 80.0216 78.5837 80.2165 78.4014C80.4178 78.2128 80.5184 77.9487 80.5184 77.6091C80.5184 77.2759 80.4178 77.0212 80.2165 76.8451C80.0216 76.6628 79.745 76.5716 79.3865 76.5716H77.3021V78.6749ZM86.0571 72.9027H87.2361V76.8263C87.2361 77.0526 87.2455 77.2822 87.2644 77.5148C87.2896 77.7475 87.3524 77.9581 87.453 78.1467C87.5599 78.3291 87.7171 78.48 87.9246 78.5995C88.1384 78.7189 88.4371 78.7787 88.8207 78.7787C89.2042 78.7787 89.4997 78.7189 89.7072 78.5995C89.921 78.48 90.0782 78.3291 90.1788 78.1467C90.2857 77.9581 90.3486 77.7475 90.3675 77.5148C90.3926 77.2822 90.4052 77.0526 90.4052 76.8263V72.9027H91.5842V77.213C91.5842 77.6469 91.5182 78.0241 91.3861 78.3448C91.2541 78.6655 91.0654 78.9359 90.8202 79.1559C90.5813 79.3697 90.292 79.5301 89.9525 79.637C89.6129 79.7439 89.2357 79.7973 88.8207 79.7973C88.4057 79.7973 88.0284 79.7439 87.6888 79.637C87.3493 79.5301 87.0569 79.3697 86.8117 79.1559C86.5727 78.9359 86.3873 78.6655 86.2552 78.3448C86.1232 78.0241 86.0571 77.6469 86.0571 77.213V72.9027ZM98.0622 76.9961L95.5344 72.9027H96.902L98.6847 75.9208L100.439 72.9027H101.759L99.2411 76.9961V79.637H98.0622V76.9961Z" fill="#F8F4EE"/>
<circle cx="112.527" cy="76.137" r="1.37456" fill="#F8F4EE"/>
<path d="M125.007 75.2228H126.931C127.214 75.2228 127.45 75.1442 127.639 74.987C127.827 74.8235 127.922 74.5908 127.922 74.289C127.922 73.9495 127.837 73.7105 127.667 73.5722C127.497 73.4339 127.252 73.3647 126.931 73.3647H125.007V75.2228ZM123.828 72.4027H127.101C127.705 72.4027 128.189 72.541 128.554 72.8177C128.918 73.0943 129.101 73.5125 129.101 74.0721C129.101 74.4116 129.016 74.704 128.846 74.9492C128.682 75.1882 128.447 75.3737 128.139 75.5057V75.5246C128.554 75.6126 128.868 75.8107 129.082 76.1188C129.295 76.4206 129.402 76.801 129.402 77.26C129.402 77.5241 129.355 77.7725 129.261 78.0051C129.167 78.2315 129.019 78.4296 128.818 78.5993C128.616 78.7628 128.359 78.8949 128.044 78.9955C127.73 79.0898 127.356 79.137 126.922 79.137H123.828V72.4027ZM125.007 78.1749H127.092C127.45 78.1749 127.727 78.0837 127.922 77.9014C128.123 77.7128 128.223 77.4487 128.223 77.1091C128.223 76.7759 128.123 76.5212 127.922 76.3451C127.727 76.1628 127.45 76.0716 127.092 76.0716H125.007V78.1749ZM133.762 72.4027H134.941V76.3263C134.941 76.5526 134.951 76.7822 134.969 77.0148C134.995 77.2475 135.057 77.4581 135.158 77.6467C135.265 77.8291 135.422 77.98 135.63 78.0995C135.843 78.2189 136.142 78.2787 136.526 78.2787C136.909 78.2787 137.205 78.2189 137.412 78.0995C137.626 77.98 137.783 77.8291 137.884 77.6467C137.991 77.4581 138.054 77.2475 138.073 77.0148C138.098 76.7822 138.11 76.5526 138.11 76.3263V72.4027H139.289V76.713C139.289 77.1469 139.223 77.5241 139.091 77.8448C138.959 78.1655 138.77 78.4359 138.525 78.6559C138.286 78.8697 137.997 79.0301 137.658 79.137C137.318 79.2439 136.941 79.2973 136.526 79.2973C136.111 79.2973 135.733 79.2439 135.394 79.137C135.054 79.0301 134.762 78.8697 134.517 78.6559C134.278 78.4359 134.092 78.1655 133.96 77.8448C133.828 77.5241 133.762 77.1469 133.762 76.713V72.4027ZM144.013 72.4027H145.192V79.137H144.013V72.4027ZM150.006 72.4027H151.185V78.1183H154.609V79.137H150.006V72.4027ZM158.791 72.4027H161.583C162.098 72.4027 162.545 72.4907 162.922 72.6667C163.299 72.8428 163.607 73.0849 163.846 73.393C164.085 73.6948 164.261 74.0501 164.375 74.4588C164.494 74.8675 164.554 75.3045 164.554 75.7698C164.554 76.2351 164.494 76.6721 164.375 77.0808C164.261 77.4895 164.085 77.8479 163.846 78.1561C163.607 78.4579 163.299 78.6968 162.922 78.8729C162.545 79.0489 162.098 79.137 161.583 79.137H158.791V72.4027ZM159.97 78.1749H161.13C161.589 78.1749 161.963 78.1152 162.252 77.9957C162.548 77.87 162.777 77.7002 162.941 77.4864C163.111 77.2663 163.224 77.0117 163.28 76.7224C163.343 76.4269 163.375 76.1094 163.375 75.7698C163.375 75.4303 163.343 75.1159 163.28 74.8266C163.224 74.5311 163.111 74.2764 162.941 74.0626C162.777 73.8426 162.548 73.6728 162.252 73.5533C161.963 73.4276 161.589 73.3647 161.13 73.3647H159.97V78.1749Z" fill="#F8F4EE"/>
<circle cx="175.464" cy="76.137" r="1.37456" fill="#F8F4EE"/>
<path d="M191.631 74.5437C191.58 74.3487 191.511 74.1695 191.423 74.0061C191.335 73.8426 191.222 73.7011 191.084 73.5816C190.945 73.4622 190.782 73.371 190.593 73.3081C190.411 73.2389 190.197 73.2044 189.952 73.2044C189.593 73.2044 189.282 73.2767 189.018 73.4213C188.76 73.5659 188.55 73.7608 188.386 74.0061C188.223 74.245 188.1 74.5185 188.018 74.8266C187.943 75.1347 187.905 75.4491 187.905 75.7698C187.905 76.0905 187.943 76.4049 188.018 76.713C188.1 77.0211 188.223 77.2978 188.386 77.543C188.55 77.7819 188.76 77.9737 189.018 78.1183C189.282 78.2629 189.593 78.3353 189.952 78.3353C190.216 78.3353 190.448 78.2912 190.65 78.2032C190.851 78.1089 191.024 77.9831 191.168 77.8259C191.313 77.6625 191.426 77.4738 191.508 77.26C191.59 77.0462 191.643 76.8167 191.668 76.5715H192.819C192.794 76.9739 192.706 77.3418 192.555 77.675C192.41 78.0083 192.212 78.2975 191.961 78.5428C191.709 78.7817 191.414 78.9672 191.074 79.0992C190.735 79.2313 190.36 79.2973 189.952 79.2973C189.449 79.2973 188.996 79.2061 188.594 79.0238C188.197 78.8351 187.861 78.5805 187.584 78.2598C187.308 77.9391 187.094 77.565 186.943 77.1374C186.798 76.7098 186.726 76.254 186.726 75.7698C186.726 75.2919 186.798 74.8392 186.943 74.4116C187.094 73.9841 187.308 73.6099 187.584 73.2892C187.861 72.9686 188.197 72.7139 188.594 72.5253C188.996 72.3366 189.449 72.2423 189.952 72.2423C190.329 72.2423 190.684 72.2958 191.018 72.4027C191.351 72.5033 191.643 72.6542 191.895 72.8554C192.152 73.0503 192.36 73.2892 192.517 73.5722C192.674 73.8551 192.772 74.179 192.81 74.5437H191.631ZM200.127 73.2044C199.769 73.2044 199.457 73.2767 199.193 73.4213C198.935 73.5659 198.725 73.7608 198.561 74.0061C198.398 74.245 198.275 74.5185 198.193 74.8266C198.118 75.1347 198.08 75.4491 198.08 75.7698C198.08 76.0905 198.118 76.4049 198.193 76.713C198.275 77.0211 198.398 77.2978 198.561 77.543C198.725 77.7819 198.935 77.9737 199.193 78.1183C199.457 78.2629 199.769 78.3353 200.127 78.3353C200.485 78.3353 200.793 78.2629 201.051 78.1183C201.315 77.9737 201.529 77.7819 201.693 77.543C201.856 77.2978 201.976 77.0211 202.051 76.713C202.133 76.4049 202.174 76.0905 202.174 75.7698C202.174 75.4491 202.133 75.1347 202.051 74.8266C201.976 74.5185 201.856 74.245 201.693 74.0061C201.529 73.7608 201.315 73.5659 201.051 73.4213C200.793 73.2767 200.485 73.2044 200.127 73.2044ZM200.127 72.2423C200.63 72.2423 201.08 72.3366 201.476 72.5253C201.878 72.7139 202.218 72.9686 202.494 73.2892C202.771 73.6099 202.982 73.9841 203.126 74.4116C203.277 74.8392 203.353 75.2919 203.353 75.7698C203.353 76.254 203.277 76.7098 203.126 77.1374C202.982 77.565 202.771 77.9391 202.494 78.2598C202.218 78.5805 201.878 78.8351 201.476 79.0238C201.08 79.2061 200.63 79.2973 200.127 79.2973C199.624 79.2973 199.171 79.2061 198.769 79.0238C198.373 78.8351 198.036 78.5805 197.76 78.2598C197.483 77.9391 197.269 77.565 197.118 77.1374C196.974 76.7098 196.901 76.254 196.901 75.7698C196.901 75.2919 196.974 74.8392 197.118 74.4116C197.269 73.9841 197.483 73.6099 197.76 73.2892C198.036 72.9686 198.373 72.7139 198.769 72.5253C199.171 72.3366 199.624 72.2423 200.127 72.2423ZM207.747 72.4027H208.992L212.067 77.3638H212.086V72.4027H213.208V79.137H211.963L208.898 74.1853H208.869V79.137H207.747V72.4027ZM217.922 72.4027H219.167L222.242 77.3638H222.261V72.4027H223.383V79.137H222.138L219.073 74.1853H219.045V79.137H217.922V72.4027ZM228.145 72.4027H232.993V73.4213H229.324V75.185H232.719V76.1471H229.324V78.1183H233.059V79.137H228.145V72.4027ZM242 74.5437C241.95 74.3487 241.881 74.1695 241.793 74.0061C241.705 73.8426 241.592 73.7011 241.453 73.5816C241.315 73.4622 241.151 73.371 240.963 73.3081C240.78 73.2389 240.567 73.2044 240.321 73.2044C239.963 73.2044 239.652 73.2767 239.388 73.4213C239.13 73.5659 238.919 73.7608 238.756 74.0061C238.592 74.245 238.47 74.5185 238.388 74.8266C238.312 75.1347 238.275 75.4491 238.275 75.7698C238.275 76.0905 238.312 76.4049 238.388 76.713C238.47 77.0211 238.592 77.2978 238.756 77.543C238.919 77.7819 239.13 77.9737 239.388 78.1183C239.652 78.2629 239.963 78.3353 240.321 78.3353C240.585 78.3353 240.818 78.2912 241.019 78.2032C241.221 78.1089 241.393 77.9831 241.538 77.8259C241.683 77.6625 241.796 77.4738 241.878 77.26C241.959 77.0462 242.013 76.8167 242.038 76.5715H243.189C243.163 76.9739 243.075 77.3418 242.925 77.675C242.78 78.0083 242.582 78.2975 242.33 78.5428C242.079 78.7817 241.783 78.9672 241.444 79.0992C241.104 79.2313 240.73 79.2973 240.321 79.2973C239.818 79.2973 239.366 79.2061 238.963 79.0238C238.567 78.8351 238.231 78.5805 237.954 78.2598C237.677 77.9391 237.464 77.565 237.313 77.1374C237.168 76.7098 237.096 76.254 237.096 75.7698C237.096 75.2919 237.168 74.8392 237.313 74.4116C237.464 73.9841 237.677 73.6099 237.954 73.2892C238.231 72.9686 238.567 72.7139 238.963 72.5253C239.366 72.3366 239.818 72.2423 240.321 72.2423C240.699 72.2423 241.054 72.2958 241.387 72.4027C241.72 72.5033 242.013 72.6542 242.264 72.8554C242.522 73.0503 242.73 73.2892 242.887 73.5722C243.044 73.8551 243.141 74.179 243.179 74.5437H242ZM246.988 72.4027H252.44V73.4213H250.299V79.137H249.12V73.4213H246.988V72.4027Z" fill="#F8F4EE"/>
</svg>
