<svg width="152" height="47" viewBox="0 0 152 47" fill="none" xmlns="http://www.w3.org/2000/svg">
<path d="M8.164 15.028H16.432C17.888 15.028 19.084 14.6813 20.02 13.988C20.956 13.2947 21.424 12.168 21.424 10.608C21.424 9.74134 21.268 9.03067 20.956 8.47601C20.644 7.92134 20.228 7.488 19.708 7.176C19.188 6.864 18.5813 6.656 17.888 6.55201C17.2293 6.41334 16.536 6.34401 15.808 6.34401H8.164V15.028ZM2.86102e-06 3.57628e-06H17.472C19.24 3.57628e-06 20.852 0.156004 22.308 0.468004C23.764 0.780004 25.012 1.3 26.052 2.02801C27.092 2.72134 27.8893 3.65734 28.444 4.836C29.0333 6.01467 29.328 7.47067 29.328 9.20401C29.328 11.076 28.8947 12.636 28.028 13.884C27.196 15.132 25.948 16.1547 24.284 16.952C26.572 17.6107 28.2707 18.772 29.38 20.436C30.524 22.0653 31.096 24.0413 31.096 26.364C31.096 28.236 30.732 29.8653 30.004 31.252C29.276 32.604 28.288 33.7133 27.04 34.58C25.8267 35.4467 24.4227 36.088 22.828 36.504C21.268 36.92 19.656 37.128 17.992 37.128H2.86102e-06V3.57628e-06ZM8.164 30.784H16.9C17.6973 30.784 18.46 30.7147 19.188 30.576C19.916 30.4027 20.5573 30.1427 21.112 29.796C21.6667 29.4147 22.1 28.912 22.412 28.288C22.7587 27.664 22.932 26.8667 22.932 25.896C22.932 23.9893 22.3947 22.6373 21.32 21.84C20.2453 21.008 18.824 20.592 17.056 20.592H8.164V30.784ZM35.8333 10.244H42.8533V15.236H42.9573C43.304 14.404 43.772 13.6413 44.3613 12.948C44.9506 12.22 45.6266 11.6133 46.3893 11.128C47.152 10.608 47.9666 10.2093 48.8333 9.93201C49.7 9.65467 50.6013 9.51601 51.5373 9.51601C52.0226 9.51601 52.56 9.60267 53.1493 9.776V16.64C52.8026 16.5707 52.3866 16.5187 51.9013 16.484C51.416 16.4147 50.948 16.38 50.4973 16.38C49.1453 16.38 48.0013 16.6053 47.0653 17.056C46.1293 17.5067 45.3666 18.1307 44.7773 18.928C44.2226 19.6907 43.824 20.592 43.5813 21.632C43.3386 22.672 43.2173 23.7987 43.2173 25.012V37.128H35.8333V10.244ZM63.6362 6.08401H56.2522V3.57628e-06H63.6362V6.08401ZM56.2522 10.244H63.6362V37.128H56.2522V10.244ZM75.1705 28.392C75.1705 29.1893 75.3265 29.8827 75.6385 30.472C75.9851 31.0267 76.4185 31.4947 76.9385 31.876C77.4585 32.2227 78.0478 32.4827 78.7065 32.656C79.3998 32.8293 80.1105 32.916 80.8385 32.916C81.3585 32.916 81.8958 32.864 82.4505 32.76C83.0398 32.6213 83.5598 32.4307 84.0105 32.188C84.4958 31.9107 84.8945 31.564 85.2065 31.148C85.5185 30.6973 85.6745 30.1427 85.6745 29.484C85.6745 28.3747 84.9291 27.5427 83.4385 26.988C81.9825 26.4333 79.9371 25.8787 77.3025 25.324C76.2278 25.0813 75.1705 24.804 74.1305 24.492C73.1251 24.1453 72.2238 23.712 71.4265 23.192C70.6291 22.6373 69.9878 21.9613 69.5025 21.164C69.0171 20.332 68.7745 19.3267 68.7745 18.148C68.7745 16.4147 69.1038 14.9933 69.7625 13.884C70.4558 12.7747 71.3571 11.908 72.4665 11.284C73.5758 10.6253 74.8238 10.1747 76.2105 9.93201C77.5971 9.65467 79.0185 9.51601 80.4745 9.51601C81.9305 9.51601 83.3345 9.65467 84.6865 9.93201C86.0731 10.2093 87.3038 10.6773 88.3785 11.336C89.4531 11.9947 90.3371 12.8787 91.0305 13.988C91.7585 15.0627 92.1918 16.432 92.3305 18.096H85.3105C85.2065 16.6747 84.6691 15.7213 83.6985 15.236C82.7278 14.716 81.5838 14.456 80.2665 14.456C79.8505 14.456 79.3998 14.4907 78.9145 14.56C78.4291 14.5947 77.9785 14.6987 77.5625 14.872C77.1811 15.0453 76.8518 15.3053 76.5745 15.652C76.2971 15.964 76.1585 16.3973 76.1585 16.952C76.1585 17.6107 76.4011 18.148 76.8865 18.564C77.3718 18.98 77.9958 19.3267 78.7585 19.604C79.5558 19.8467 80.4571 20.072 81.4625 20.28C82.4678 20.488 83.4905 20.7133 84.5305 20.956C85.6051 21.1987 86.6451 21.4933 87.6505 21.84C88.6905 22.1867 89.6091 22.6547 90.4065 23.244C91.2038 23.7987 91.8451 24.5093 92.3305 25.376C92.8158 26.208 93.0585 27.248 93.0585 28.496C93.0585 30.264 92.6945 31.7547 91.9665 32.968C91.2731 34.1467 90.3545 35.1 89.2105 35.828C88.0665 36.556 86.7491 37.0587 85.2585 37.336C83.8025 37.648 82.3118 37.804 80.7865 37.804C79.2265 37.804 77.7011 37.648 76.2105 37.336C74.7198 37.024 73.3851 36.504 72.2065 35.776C71.0625 35.048 70.1091 34.0947 69.3465 32.916C68.6185 31.7027 68.2198 30.1947 68.1505 28.392H75.1705ZM98.0562 3.57628e-06H105.44V19.916L114.748 10.244H123.484L113.344 20.124L124.628 37.128H115.684L108.3 25.116L105.44 27.872V37.128H98.0562V3.57628e-06ZM140.5 40.456C139.702 42.64 138.593 44.2 137.172 45.136C135.75 46.072 133.774 46.54 131.244 46.54C130.481 46.54 129.718 46.5053 128.956 46.436C128.228 46.4013 127.482 46.3493 126.72 46.28V40.196C127.413 40.2653 128.124 40.3347 128.852 40.404C129.58 40.4733 130.308 40.4907 131.036 40.456C132.006 40.352 132.717 39.9707 133.168 39.312C133.653 38.6533 133.896 37.9253 133.896 37.128C133.896 36.5387 133.792 35.984 133.584 35.464L124.172 10.244H132.024L138.108 28.652H138.212L144.088 10.244H151.732L140.5 40.456Z" fill="white"/>
</svg>
