<svg width="82" height="32" viewBox="0 0 82 32" fill="none" xmlns="http://www.w3.org/2000/svg">
<path d="M79.0911 6.80615L68.3675 31.3078H65.5123L68.9983 23.3398L61.6611 6.80615H64.5163L70.4591 20.053L76.2027 6.80615H79.0911Z" fill="#2C3F24"/>
<path d="M61.2065 8.93091L59.4469 10.7569C58.141 9.53958 56.9458 8.93091 55.8613 8.93091C55.1751 8.93091 54.5997 9.15224 54.1349 9.59491C53.6701 10.0154 53.4377 10.5466 53.4377 11.1885C53.4377 11.8082 53.6922 12.3616 54.2013 12.8485C54.7325 13.3133 55.6621 13.8998 56.9901 14.6081C58.3181 15.2942 59.3362 16.0578 60.0445 16.8989C60.7749 17.74 61.1401 18.7692 61.1401 19.9865C61.1401 21.5358 60.5978 22.8417 59.5133 23.9041C58.4509 24.9665 57.1339 25.4977 55.5625 25.4977C53.3713 25.4977 51.5453 24.5681 50.0845 22.7089L51.8109 20.7833C53.0061 22.1777 54.2234 22.8749 55.4629 22.8749C56.3039 22.8749 57.0233 22.5982 57.6209 22.0449C58.2185 21.4916 58.5173 20.8497 58.5173 20.1193C58.5173 19.3668 58.2406 18.747 57.6873 18.2601C57.1561 17.751 56.2265 17.1645 54.8985 16.5005C53.5926 15.8365 52.5966 15.1061 51.9105 14.3093C51.2465 13.4904 50.9145 12.428 50.9145 11.1221C50.9145 9.79411 51.3903 8.66531 52.3421 7.73571C53.3159 6.80611 54.5886 6.34131 56.1601 6.34131C57.7537 6.34131 59.4358 7.20451 61.2065 8.93091Z" fill="#2C3F24"/>
<path d="M50.3184 24.9H46.3676L37.8684 17.264V24.9H35.1128V0H37.8684V13.6452L45.6704 6.8392L49.754 6.806L39.794 15.438L50.3184 24.9Z" fill="#2C3F24"/>
<path d="M31.4876 0C32.0852 0 32.5832 0.210268 32.9816 0.630802C33.4021 1.0292 33.6124 1.5272 33.6124 2.1248C33.6124 2.70027 33.4021 3.19827 32.9816 3.6188C32.5832 4.0172 32.0852 4.2164 31.4876 4.2164C30.9121 4.2164 30.4141 4.00613 29.9936 3.5856C29.5952 3.16507 29.396 2.67813 29.396 2.1248C29.396 1.54933 29.5952 1.05134 29.9936 0.630802C30.4141 0.210268 30.9121 0 31.4876 0ZM32.882 24.9H30.1264V6.806H32.882V24.9Z" fill="#2C3F24"/>
<path d="M29.1044 7.07171L27.6768 9.39571C27.3005 9.19651 26.9353 9.09691 26.5812 9.09691C25.8951 9.09691 25.2753 9.43997 24.722 10.1261C24.1687 10.7901 23.7481 11.6754 23.4604 12.7821C23.1948 13.8666 23.062 15.8365 23.062 18.6917V24.9001H20.2732V6.80611H23.062V8.76491C23.6153 7.94597 24.1687 7.33731 24.722 6.93891C25.2975 6.54051 25.9393 6.34131 26.6476 6.34131C27.378 6.34131 28.1969 6.58478 29.1044 7.07171Z" fill="#2C3F24"/>
<path d="M2.6892 9.462C4.57053 7.38147 6.82813 6.3412 9.462 6.3412C12.0959 6.3412 14.3092 7.28187 16.102 9.1632C17.9169 11.0224 18.8244 13.2689 18.8244 15.9028C18.8244 18.5367 17.9059 20.7943 16.0688 22.6756C14.2317 24.5569 12.0073 25.4976 9.3956 25.4976C6.806 25.4976 4.57053 24.3688 2.6892 22.1112V24.9H0V0H2.6892V9.462ZM9.296 22.8416C11.1773 22.8416 12.7709 22.1444 14.0768 20.75C15.4048 19.3556 16.0688 17.7288 16.0688 15.8696C16.0688 13.9883 15.4269 12.3504 14.1432 10.956C12.8595 9.5616 11.2548 8.8644 9.3292 8.8644C7.4036 8.8644 5.78787 9.51733 4.482 10.8232C3.19827 12.1291 2.5564 13.778 2.5564 15.77C2.5564 17.7399 3.20933 19.4109 4.5152 20.7832C5.82107 22.1555 7.41467 22.8416 9.296 22.8416Z" fill="#2C3F24"/>
<rect x="78.5432" y="23.8921" width="2.64999" height="2.64999" fill="#E10C41"/>
</svg>
