<svg width="20" height="20" viewBox="0 0 20 20" fill="none" xmlns="http://www.w3.org/2000/svg">
<path d="M10 15.4163L7.5 14.1663L2.5 16.6663V5.83301L7.5 3.33301L12.5 5.83301L17.5 3.33301V9.16634" stroke="currentColor" stroke-width="1.66667" stroke-linecap="round" stroke-linejoin="round"/>
<path d="M7.5 3.33301V14.1663" stroke="currentColor" stroke-width="1.66667" stroke-linecap="round" stroke-linejoin="round"/>
<path d="M12.5 5.83301V9.99967" stroke="currentColor" stroke-width="1.66667" stroke-linecap="round" stroke-linejoin="round"/>
<path d="M17.6009 16.7671C17.9506 16.4175 18.1888 15.972 18.2853 15.487C18.3818 15.0021 18.3323 14.4993 18.1431 14.0425C17.9539 13.5856 17.6335 13.1951 17.2224 12.9204C16.8112 12.6457 16.3279 12.499 15.8334 12.499C15.3389 12.499 14.8555 12.6457 14.4444 12.9204C14.0332 13.1951 13.7128 13.5856 13.5236 14.0425C13.3344 14.4993 13.2849 15.0021 13.3815 15.487C13.478 15.972 13.7162 16.4175 14.0659 16.7671C14.4142 17.1162 15.0034 17.6379 15.8334 18.3329C16.7092 17.5912 17.2992 17.0696 17.6009 16.7671Z" stroke="currentColor" stroke-width="1.66667" stroke-linecap="round" stroke-linejoin="round"/>
<path d="M15.8334 15V15.0083" stroke="currentColor" stroke-width="1.66667" stroke-linecap="round" stroke-linejoin="round"/>
</svg>
